Coordinates
version=1
nRows=24
nColumns=22
inDegrees=yes

Units are S.I. units (second, meters, Newtons, ...)
If the header above contains a line with 'inDegrees', this indicates whether rotational values are in degrees (yes) or radians (no).

endheader
time	pelvis_tilt	pelvis_list	pelvis_rotation	pelvis_tx	pelvis_ty	pelvis_tz	hip_flexion_r	hip_adduction_r	hip_rotation_r	knee_angle_r	ankle_angle_r	subtalar_angle_r	hip_flexion_l	hip_adduction_l	hip_rotation_l	knee_angle_l	ankle_angle_l	subtalar_angle_l	lumbar_extension	lumbar_bending	lumbar_rotation
      3.61000000	     -2.15961886	     -5.15531429	    -77.12602978	     -0.03339635	      1.00928384	      0.66194603	     13.04056340	      7.25664781	    -13.33989761	    -23.11355498	      6.62180804	     -6.83569133	      3.68000866	     -5.48966027	    -10.82376195	    -55.38857615	     -0.72570923	     12.51439725	    -12.64504197	      5.41455058	      0.65287684
      3.62000000	     -2.33577113	     -5.15138368	    -77.37115497	     -0.03252600	      1.00951322	      0.66632784	     12.75307536	      7.49101894	    -13.13770041	    -23.02393652	      6.81141109	     -6.79968577	      4.41532162	     -6.04197732	    -10.85921515	    -56.30967228	     -0.03849328	     12.42602395	    -12.71290567	      5.58036971	      0.94630570
      3.63000000	     -2.50724099	     -5.14929321	    -77.61305831	     -0.03167692	      1.00978332	      0.67052974	     12.45582356	      7.72129323	    -12.93058216	    -22.90299528	      6.97741155	     -6.75315522	      5.12834901	     -6.58078922	    -10.85946640	    -57.04873103	      0.79979547	     12.10918897	    -12.79458915	      5.74079250	      1.26941142
      3.64000000	     -2.64654630	     -5.14423056	    -77.84995368	     -0.03083664	      1.01010734	      0.67454434	     12.15305777	      7.91362997	    -12.72033671	    -22.76431627	      7.14102874	     -6.68693480	      5.80983408	     -7.05990892	    -10.81132324	    -57.58412158	      1.73981688	     11.42731543	    -12.88986969	      5.86027161	      1.60272031
      3.65000000	     -2.79433725	     -5.16598381	    -78.09490435	     -0.03002734	      1.01051671	      0.67837491	     11.81460585	      8.12123733	    -12.51579729	    -22.58788057	      7.24841622	     -6.66022885	      6.44472425	     -7.53098171	    -10.71872526	    -57.93601219	      2.71036011	     10.96148799	    -13.02782148	      5.99295499	      1.98245794
      3.66000000	     -2.88457352	     -5.15385294	    -78.33052841	     -0.02919162	      1.01098022	      0.68204162	     11.47806112	      8.26349169	    -12.27419022	    -22.35906523	      7.34416110	     -6.60823454	      7.06561199	     -7.87787038	    -10.55340897	    -58.06566136	      3.64856886	     10.16299710	    -13.13836581	      6.05267955	      2.33915644
      3.67000000	     -2.95943511	     -5.13895649	    -78.57037312	     -0.02834600	      1.01148109	      0.68552691	     11.14438855	      8.38096209	    -12.05352987	    -22.11981195	      7.43150493	     -6.57937646	      7.66210776	     -8.16335502	    -10.33297503	    -58.01458081	      4.53375786	      9.60260128	    -13.25618743	      6.09516641	      2.71984387
      3.68000000	     -3.01718482	     -5.11572589	    -78.81490868	     -0.02749910	      1.01199556	      0.68883881	     10.82732445	      8.47160735	    -11.84629930	    -21.88744243	      7.51416308	     -6.56295289	      8.23812264	     -8.37857687	    -10.05307868	    -57.79228497	      5.35467451	      9.18312627	    -13.37261934	      6.11335388	      3.12487609
      3.69000000	     -3.03766277	     -5.07231868	    -79.05113460	     -0.02662092	      1.01253198	      0.69200116	     10.51635982	      8.51762672	    -11.62176378	    -21.62575795	      7.57846870	     -6.55482567	      8.79485587	     -8.49450015	     -9.70943148	    -57.39208443	      6.10815217	      8.86987918	    -13.47103969	      6.08740581	      3.49066065
      3.70000000	     -3.05390616	     -5.01603782	    -79.29528504	     -0.02575106	      1.01305790	      0.69502398	     10.21465192	      8.55823965	    -11.37567603	    -21.34047275	      7.61811481	     -6.55620171	      9.33713107	     -8.56764050	     -9.33667659	    -56.84695162	      6.79876412	      8.60415389	    -13.55606072	      6.05211462	      3.85320292
      3.71000000	     -3.06466249	     -4.95127844	    -79.54774896	     -0.02488500	      1.01357566	      0.69792773	      9.92058079	      8.59385644	    -11.10126570	    -21.03965787	      7.63976796	     -6.57786778	      9.85252433	     -8.59655588	     -8.93122928	    -56.15965539	      7.44178218	      8.37158580	    -13.63093735	      6.00873031	      4.19615330
      3.72000000	     -3.05426910	     -4.87073955	    -79.77650037	     -0.02395074	      1.01406255	      0.70070916	      9.65537394	      8.58912083	    -10.88405476	    -20.75492127	      7.65970423	     -6.59761448	     10.35059881	     -8.55926527	     -8.46871554	    -55.33630948	      8.10464296	      8.31506955	    -13.68768402	      5.94831411	      4.49262007
      3.73000000	     -3.07306399	     -4.80126987	    -80.05445613	     -0.02310623	      1.01451399	      0.70342235	      9.39100226	      8.62602517	    -10.62641462	    -20.47311829	      7.66866932	     -6.67444398	     10.79643672	     -8.55879573	     -8.05641595	    -54.40098365	      8.79136512	      8.20477758	    -13.75333440	      5.90599604	      4.86653638
      3.74000000	     -3.07330842	     -4.71778818	    -80.30659717	     -0.02219844	      1.01493406	      0.70602524	      9.15083699	      8.63124404	    -10.40085028	    -20.20073104	      7.66692175	     -6.74643735	     11.22242243	     -8.50239402	     -7.59105157	    -53.34672994	      9.47207476	      8.13642516	    -13.80110187	      5.84906729	      5.17012641
      3.75000000	     -3.07564492	     -4.63408287	    -80.56132982	     -0.02129301	      1.01531582	      0.70853317	      8.92458318	      8.63813398	    -10.15382085	    -19.94144043	      7.65703683	     -6.84568907	     11.61196946	     -8.43705102	     -7.12044198	    -52.18957113	     10.14471970	      8.05224895	    -13.85177691	      5.79239572	      5.46477571
      3.76000000	     -3.07773820	     -4.53051475	    -80.78444804	     -0.02032400	      1.01564361	      0.71092406	      8.73385355	      8.63607168	     -9.90262196	    -19.69556458	      7.63388911	     -6.90962827	     11.99945414	     -8.34248445	     -6.59932821	    -50.94118739	     10.77333141	      7.99878102	    -13.87734017	      5.74081078	      5.69301223
      3.77000000	     -3.07406123	     -4.46309784	    -81.05882541	     -0.01941373	      1.01599837	      0.71328063	      8.51315110	      8.63624993	     -9.62499242	    -19.46787244	      7.62689188	     -7.11073714	     12.28094103	     -8.25306121	     -6.14518191	    -49.58180166	     11.39997972	      7.79390534	    -13.94683083	      5.67365216	      5.99663992
      3.78000000	     -3.07713206	     -4.35045850	    -81.28753701	     -0.01839553	      1.01624483	      0.71550884	      8.37051406	      8.61631182	     -9.40885126	    -19.27739470	      7.61895266	     -7.18381647	     12.59835532	     -8.13361435	     -5.62684148	    -48.15906694	     12.00959408	      7.70434074	    -13.96032486	      5.62202549	      6.22716351
      3.79000000	     -3.08797168	     -4.22413870	    -81.50153812	     -0.01733331	      1.01644963	      0.71763762	      8.25339767	      8.60096619	     -9.15759444	    -19.09419341	      7.59960128	     -7.22874444	     12.90226746	     -7.99822523	     -5.07625157	    -46.66877067	     12.56967108	      7.64471908	    -13.95727437	      5.58271366	      6.40691617
      3.80000000	     -3.06269562	     -4.12824218	    -81.75085196	     -0.01625927	      1.01670007	      0.71973861	      8.11759935	      8.54152716	     -8.92282744	    -18.95140236	      7.63900606	     -7.32216468	     13.09832594	     -7.82487415	     -4.58869417	    -45.07845150	     13.11218597	      7.45993749	    -13.99148286	      5.50200847	      6.65387169
      3.81000000	     -3.05626687	     -4.01355811	    -81.97111366	     -0.01510160	      1.01690078	      0.72174762	      8.01340471	      8.49195111	     -8.69129597	    -18.80991910	      7.65357524	     -7.35711158	     13.29504851	     -7.63835298	     -4.04589355	    -43.44652902	     13.61368728	      7.35105912	    -13.99717665	      5.45358455	      6.83447701
      3.82000000	     -3.03970553	     -3.90368853	    -82.19403859	     -0.01389964	      1.01710239	      0.72369891	      7.91779336	      8.42538249	     -8.45788191	    -18.69200591	      7.69069801	     -7.36601407	     13.43953376	     -7.42180129	     -3.49958166	    -41.76124081	     14.07204796	      7.27515532	    -14.00550472	      5.39847312	      7.01050435
      3.83000000	     -3.01526201	     -3.80956856	    -82.41590147	     -0.01264231	      1.01732240	      0.72559030	      7.81722683	      8.34731827	     -8.20861280	    -18.59230220	      7.73980056	     -7.34887520	     13.52344668	     -7.17738181	     -2.93897190	    -40.04052783	     14.47530605	      7.24032798	    -14.03028894	      5.34408659	      7.17128167
      3.84000000	     -2.98579746	     -3.70497029	    -82.64161300	     -0.01134932	      1.01751780	      0.72746034	      7.73664228	      8.25418405	     -7.98723864	    -18.50578603	      7.79329221	     -7.31796443	     13.57445512	     -6.91361161	     -2.38938984	    -38.30290650	     14.84236473	      7.28187451	    -14.03066232	      5.28495476	      7.32337307
